<svg xmlns="http://www.w3.org/2000/svg" viewBox="0 0 900 470" role="img" aria-labelledby="title desc">
<title id="title">thesiskit featured project</title><desc id="desc">Research toolkit for streamlining academic research workflows and experimentation.</desc>
<rect width="900" height="470" rx="18" fill="#071018" stroke="#263642" stroke-width="2"/>
<rect x="28" y="28" width="844" height="414" rx="12" fill="#0b151e" stroke="#1d2a34"/>
<rect x="54" y="58" width="72" height="72" rx="12" fill="#15152b" stroke="#8b82ff" stroke-width="2"/>
<path d="M73 71h34v47H73zM81 84h18M81 96h18M81 108h13" fill="none" stroke="#8b82ff" stroke-width="4" stroke-linecap="round"/>
<text x="148" y="83" fill="#9b93ff" font-family="monospace" font-size="30" font-weight="700">thesiskit</text>
<text x="148" y="113" fill="#d5dee5" font-family="sans-serif" font-size="19">Research toolkit for academic research workflows</text>
<line x1="54" y1="160" x2="846" y2="160" stroke="#263642"/>
<text x="54" y="199" fill="#f2f6f8" font-family="sans-serif" font-size="19">Automate research workflows, manage papers, run experiments,</text>
<text x="54" y="228" fill="#f2f6f8" font-family="sans-serif" font-size="19">and build a more structured thesis workflow.</text>
<g font-family="monospace" font-size="15" fill="#d9e2e8">
<rect x="54" y="262" width="71" height="34" rx="17" fill="#181a32"/><text x="72" y="284">Python</text>
<rect x="135" y="262" width="154" height="34" rx="17" fill="#181a32"/><text x="150" y="284">Research Automation</text>
<rect x="299" y="262" width="82" height="34" rx="17" fill="#181a32"/><text x="318" y="284">LLM/AI</text>
<rect x="391" y="262" width="126" height="34" rx="17" fill="#181a32"/><text x="406" y="284">Data Processing</text>
<rect x="527" y="262" width="52" height="34" rx="17" fill="#181a32"/><text x="543" y="284">CLI</text>
<rect x="589" y="262" width="119" height="34" rx="17" fill="#181a32"/><text x="604" y="284">Academic Tools</text>
</g>
<line x1="54" y1="326" x2="846" y2="326" stroke="#263642"/>
<text x="54" y="365" fill="#aebbc4" font-family="sans-serif" font-size="17">🧪 Research tooling</text>
<text x="846" y="365" text-anchor="end" fill="#9b93ff" font-family="sans-serif" font-size="17">View repository ↗</text>
</svg>
